<svg version="1.1" id="svg1" sodipodi:docname="SL-122720-39270-09.eps" xmlns:inkscape="http://www.inkscape.org/namespaces/inkscape" xmlns:sodipodi="http://sodipodi.sourceforge.net/DTD/sodipodi-0.dtd" xmlns="http://www.w3.org/2000/svg" xmlns:svg="http://www.w3.org/2000/svg" viewBox="867.63 928.52 446.83 446.53">   <defs id="defs1"></defs>      <g id="g1" inkscape:groupmode="layer" inkscape:label="1">     <g id="group-R5">        <path id="path12" d="M 11037.7 16900.9 l -1 16.4 l -1 16.5 l -1 16.5 l -0.9 16.4 l -1 16.5 l -1 16.4 l -1 16.5 l -1 16.5 l -1 16.4 l -0.9 16.5 l -1 16.4 l -1 16.5 l -1 16.5 l -1 16.4 l -0.9 16.5 l -1 16.4 l -1 16.5 l -1 16.5 l -1 16.4 l -1 16.5 l -0.9 16.4 l -1 16.5 l -1 16.4 l -1 16.5 l -1 16.5 l -0.9 16.4 l -1 16.5 l -1 16.5 l -1 16.4 l -1 16.5 l -1 16.4 l -0.9 16.5 l -1 16.5 l -1 16.4 l -1 16.5 l -1 16.4 l -0.9 16.5 l -1 16.5 l -1 16.4 l -1 16.5 l -1 16.4 l -1 16.5 l -0.9 16.5 l -1 16.4 l -1 16.5 l -1 16.4 l -1 16.5 l -0.9 16.5 l -1 16.4 l -1 16.5 l -1 16.4 l -1 16.5 l -1 16.5 l -0.9 16.4 l -1 16.5 l -1 16.4 l -1 16.5 l -1 16.5 l -1 16.4 l -0.9 16.5 l -1 16.4 l -1 16.5 l -1 16.5 l -1 16.4 l -0.9 16.5 l -1 16.5 l -1 16.4 l -1 16.5 l -1 16.4 l -1 16.5 l -0.9 16.5 l -1 16.4 l -1 16.5 l -1 16.4 l -1 16.5 l -0.9 16.5 l -1 16.4 l -1 16.5 l -1 16.4 l -1 16.5 l -1 16.5 l -0.9 16.4 l -1 16.5 l -1 16.4 l -1 16.5 l -1 16.4 l -0.9 16.5 l -1 16.5 l -1 16.4 l -1 16.5 l -1 16.5 l -1 16.4 l -0.9 16.5 l -1 16.4 l -1 16.5 l -1 16.5 l -1 16.4 l -0.9 16.5 l -1 16.4 l -1 16.5 l -1 16.5 l -1 16.4 l -1 16.5 l -0.9 16.4 l -1 16.5 l -1 16.5 l -1 16.4 l -1 16.5 l -1 16.4 l -0.9 16.5 l -1 16.5 l -1 16.4 l -1 16.5 l -1 16.4 l -0.9 16.5 l -1 16.5 l -1 16.4 l -1 16.5 l -1 16.4 l -1 16.5 l -0.9 16.5 l -1 16.4 l -1 16.5 l -1 16.4 l -1 16.5 l -0.9 16.5 l -1 16.4 l -1 16.5 l -1 -16.5 l -1 -16.4 l -1 -16.5 l -0.9 -16.5 l -1 -16.4 l -1 -16.5 l -1 -16.4 l -1 -16.5 l -0.9 -16.5 l -1 -16.4 l -1 -16.5 l -1 -16.4 l -1 -16.5 l -1 -16.5 l -0.9 -16.4 l -1 -16.5 l -1 -16.4 l -1 -16.5 l -1 -16.5 l -0.9 -16.4 l -1 -16.5 l -1 -16.4 l -1 -16.5 l -1 -16.5 l -1 -16.4 l -0.9 -16.5 l -1 -16.4 l -1 -16.5 l -1 -16.5 l -1 -16.4 l -0.9 -16.5 l -1 -16.4 l -1 -16.5 l -1 -16.5 l -1 -16.4 l -1 -16.5 l -0.9 -16.4 l -1 -16.5 l -1 -16.5 l -1 -16.4 l -1 -16.5 l -1 -16.5 l -0.9 -16.4 l -1 -16.5 l -1 -16.4 l -1 -16.5 l -1 -16.4 l -0.9 -16.5 l -1 -16.5 l -1 -16.4 l -1 -16.5 l -1 -16.4 l -1 -16.5 l -0.9 -16.5 l -1 -16.4 l -1 -16.5 l -1 -16.4 l -1 -16.5 l -0.9 -16.5 l -1 -16.4 l -1 -16.5 l -1 -16.4 l -1 -16.5 l -1 -16.5 l -0.9 -16.4 l -1 -16.5 l -1 -16.5 l -1 -16.4 l -1 -16.5 l -0.9 -16.4 l -1 -16.5 l -1 -16.5 l -1 -16.4 l -1 -16.5 l -1 -16.4 l -0.9 -16.5 l -1 -16.5 l -1 -16.4 l -1 -16.5 l -1 -16.4 l -0.9 -16.5 l -1 -16.5 l -1 -16.4 l -1 -16.5 l -1 -16.4 l -1 -16.5 l -0.9 -16.5 l -1 -16.4 l -1 -16.5 l -1 -16.4 l -1 -16.5 l -0.9 -16.5 l -1 -16.4 l -1 -16.5 l -1 -16.4 l -1 -16.5 l -1 -16.5 l -0.9 -16.4 l -1 -16.5 l -1 -16.4 l -1 -16.5 l -1 -16.5 l -0.9 -16.4 l -1 -16.5 l -1 -16.5 l -1 -16.4 l -1 -16.5 l -1 -16.4 l -0.9 -16.5 l -1 -16.4 l -1 -16.5 l -1 -16.5 l -1 -16.4 l -0.9 -16.5 l -1 -16.4 l -1 -16.5 l -1 -16.5 l -1 -16.4 l -1 -16.5 l -0.9 -16.4 l -1 -16.5 l -1 -16.5 l -1 -16.4 l -1 -16.5 l -1 -16.4 l -0.9 -16.5 l -1 -16.5 l -1 -16.4 l -16.5 -1 l -16.4 -1 l -16.5 -1 l -16.4 -1 l -16.5 -0.9 l -16.5 -1 l -16.4 -1 l -16.5 -1 l -16.4 -1 l -16.5 -0.9 l -16.5 -1 l -16.4 -1 l -16.5 -1 l -16.4 -1 l -16.5 -1 l -16.5 -0.9 l -16.4 -1 l -16.5 -1 l -16.4 -1 l -16.5 -1 l -16.5 -0.9 l -16.4 -1 l -16.5 -1 l -16.4 -1 l -16.5 -1 l -16.5 -1 l -16.4 -0.9 l -16.5 -1 l -16.4 -1 l -16.5 -1 l -16.5 -1 l -16.4 -1 l -16.5 -0.9 l -16.4 -1 l -16.5 -1 l -16.5 -1 l -16.4 -1 l -16.5 -0.9 l -16.5 -1 l -16.4 -1 l -16.5 -1 l -16.4 -1 l -16.5 -1 l -16.5 -0.9 l -16.4 -1 l -16.5 -1 l -16.4 -1 l -16.5 -1 l -16.5 -0.9 l -16.5 -1 l -16.5 -1 l -16.5 -1 l -16.5 -1 l -16.5 -1 l -16.5 -0.9 l -16.5 -1 l -16.5 -1 l -16.5 -1 l -16.5 -1 l -16.5 -1 l -16.5 -0.9 l -16.5 -1 l -16.5 -1 l -16.5 -1 l -16.5 -1 l -16.5 -0.9 l -16.5 -1 l -16.5 -1 l -16.5 -1 l -16.5 -1 l -16.5 -1 l -16.5 -0.9 l -16.5 -1 l -16.5 -1 l -16.5 -1 l -16.5 -1 l -16.5 -0.9 l -16.5 -1 l -16.5 -1 l -16.5 -1 l -16.5 -1 l -16.5 -1 l -16.5 -0.9 l -16.5 -1 l -16.5 -1 l -16.5 -1 l -16.5 -1 l -16.5 -1 l -16.5 -0.9 l -16.5 -1 l -16.5 -1 l -16.5 -1 l -16.5 -1 l -16.5 -0.9 l -16.5 -1 l -16.5 -1 l -16.5 -1 l -16.5 -1 l -16.5 -1 l -16.5 -0.9 l -16.5 -1 l -16.5 -1 l -16.5 -1 l -16.5 -1 l -16.5 -0.9 l -16.5 -1 l -16.5 -1 l -16.5 -1 l -16.5 -1 l -16.5 -1 l -16.5 -0.9 l -16.5 -1 l -16.5 -1 l -16.5 -1 l -16.5 -1 l -16.5 -1 l -16.5 -0.9 l -16.5 -1 l -16.5 -1 l -16.5 -1 l -16.5 -1 l -16.5 -0.9 l -16.5 -1 l -16.5 -1 l -16.5 -1 l -16.5 -1 l -16.5 -0.9 l -16.4 -1 l 16.4 -1 l 16.5 -1 l 16.5 -1 l 16.5 -1 l 16.5 -0.9 l 16.5 -1 l 16.5 -1 l 16.5 -1 l 16.5 -1 l 16.5 -0.9 l 16.5 -1 l 16.5 -1 l 16.5 -1 l 16.5 -1 l 16.5 -1 l 16.5 -1 l 16.5 -0.9 l 16.5 -1 l 16.5 -1 l 16.5 -1 l 16.5 -1 l 16.5 -0.9 l 16.5 -1 l 16.5 -1 l 16.5 -1 l 16.5 -1 l 16.5 -0.9 l 16.5 -1 l 16.5 -1 l 16.5 -1 l 16.5 -1 l 16.5 -1 l 16.5 -0.9 l 16.5 -1 l 16.5 -1 l 16.5 -1 l 16.5 -1 l 16.5 -0.9 l 16.5 -1 l 16.5 -1 l 16.5 -1 l 16.5 -1 l 16.5 -1 l 16.5 -0.9 l 16.5 -1 l 16.5 -1 l 16.5 -1 l 16.5 -1 l 16.5 -0.9 l 16.5 -1 l 16.5 -1 l 16.5 -1 l 16.5 -1 l 16.5 -1 l 16.5 -0.9 l 16.5 -1 l 16.5 -1 l 16.5 -1 l 16.5 -1 l 16.5 -0.9 l 16.5 -1 l 16.5 -1 l 16.5 -1 l 16.5 -1 l 16.5 -1 l 16.5 -0.9 l 16.5 -1 l 16.5 -1 l 16.5 -1 l 16.5 -1 l 16.5 -1 l 16.5 -0.9 l 16.5 -1 l 16.5 -1 l 16.5 -1 l 16.5 -1 l 16.5 -0.9 l 16.5 -1 l 16.5 -1 l 16.5 -1 l 16.5 -1 l 16.4 -1 l 16.5 -0.9 l 16.4 -1 l 16.5 -1 l 16.5 -1 l 16.4 -1 l 16.5 -0.9 l 16.4 -1 l 16.5 -1 l 16.5 -1 l 16.4 -1 l 16.5 -1 l 16.5 -0.9 l 16.4 -1 l 16.5 -1 l 16.4 -1 l 16.5 -1 l 16.5 -1 l 16.4 -0.9 l 16.5 -1 l 16.4 -1 l 16.5 -1 l 16.5 -1 l 16.4 -0.9 l 16.5 -1 l 16.4 -1 l 16.5 -1 l 16.5 -1 l 16.4 -0.9 l 16.5 -1 l 16.4 -1 l 16.5 -1 l 16.5 -1 l 16.4 -1 l 16.5 -0.9 l 16.4 -1 l 16.5 -1 l 16.5 -1 l 16.4 -1 l 16.5 -1 l 16.4 -0.9 l 16.5 -1 l 16.5 -1 l 16.4 -1 l 16.5 -1 l 16.4 -1 l 16.5 -0.9 l 1 -16.5 l 1 -16.4 l 0.9 -16.5 l 1 -16.5 l 1 -16.4 l 1 -16.5 l 1 -16.4 l 1 -16.5 l 0.9 -16.5 l 1 -16.4 l 1 -16.5 l 1 -16.5 l 1 -16.4 l 1 -16.5 l 0.9 -16.4 l 1 -16.5 l 1 -16.4 l 1 -16.5 l 1 -16.5 l 0.9 -16.4 l 1 -16.5 l 1 -16.5 l 1 -16.4 l 1 -16.5 l 1 -16.4 l 0.9 -16.5 l 1 -16.5 l 1 -16.4 l 1 -16.5 l 1 -16.4 l 0.9 -16.5 l 1 -16.5 l 1 -16.4 l 1 -16.5 l 1 -16.4 l 1 -16.5 l 0.9 -16.5 l 1 -16.4 l 1 -16.5 l 1 -16.4 l 1 -16.5 l 0.9 -16.5 l 1 -16.4 l 1 -16.5 l 1 -16.4 l 1 -16.5 l 1 -16.5 l 0.9 -16.4 l 1 -16.5 l 1 -16.4 l 1 -16.5 l 1 -16.5 l 0.9 -16.4 l 1 -16.5 l 1 -16.4 l 1 -16.5 l 1 -16.5 l 1 -16.4 l 0.9 -16.5 l 1 -16.4 l 1 -16.5 l 1 -16.5 l 1 -16.4 l 0.9 -16.5 l 1 -16.4 l 1 -16.5 l 1 -16.5 l 1 -16.4 l 1 -16.5 l 0.9 -16.4 l 1 -16.5 l 1 -16.5 l 1 -16.4 l 1 -16.5 l 0.9 -16.5 l 1 -16.4 l 1 -16.5 l 1 -16.4 l 1 -16.5 l 1 -16.4 l 0.9 -16.5 l 1 -16.5 l 1 -16.4 l 1 -16.5 l 1 -16.4 l 0.9 -16.5 l 1 -16.5 l 1 -16.4 l 1 -16.5 l 1 -16.4 l 1 -16.5 l 0.9 -16.5 l 1 -16.4 l 1 -16.5 l 1 -16.4 l 1 -16.5 l 1 -16.5 l 0.9 -16.4 l 1 -16.5 l 1 -16.5 l 1 -16.4 l 1 -16.5 l 0.9 -16.4 l 1 -16.5 l 1 -16.5 l 1 -16.4 l 1 -16.5 l 1 -16.4 l 0.9 -16.5 l 1 -16.5 l 1 -16.4 l 1 -16.5 l 1 -16.4 l 0.9 -16.5 l 1 -16.5 l 1 -16.4 l 1 -16.5 l 1 -16.4 l 1 -16.5 l 0.9 -16.5 l 1 -16.4 l 1 -16.5 l 1 -16.4 l 1 -16.5 l 0.9 -16.5 l 1 -16.4 l 1 -16.5 l 1 -16.4 l 1 16.4 l 1 16.5 l 0.9 16.4 l 1 16.5 l 1 16.5 l 1 16.4 l 1 16.5 l 0.9 16.4 l 1 16.5 l 1 16.5 l 1 16.4 l 1 16.5 l 1 16.4 l 0.9 16.5 l 1 16.5 l 1 16.4 l 1 16.5 l 1 16.4 l 0.9 16.5 l 1 16.5 l 1 16.4 l 1 16.5 l 1 16.4 l 1 16.5 l 0.9 16.5 l 1 16.4 l 1 16.5 l 1 16.4 l 1 16.5 l 1 16.5 l 0.9 16.4 l 1 16.5 l 1 16.5 l 1 16.4 l 1 16.5 l 0.9 16.4 l 1 16.5 l 1 16.5 l 1 16.4 l 1 16.5 l 1 16.4 l 0.9 16.5 l 1 16.5 l 1 16.4 l 1 16.5 l 1 16.4 l 0.9 16.5 l 1 16.5 l 1 16.4 l 1 16.5 l 1 16.4 l 1 16.5 l 0.9 16.4 l 1 16.5 l 1 16.5 l 1 16.4 l 1 16.5 l 0.9 16.5 l 1 16.4 l 1 16.5 l 1 16.4 l 1 16.5 l 1 16.5 l 0.9 16.4 l 1 16.5 l 1 16.4 l 1 16.5 l 1 16.5 l 0.9 16.4 l 1 16.5 l 1 16.4 l 1 16.5 l 1 16.5 l 1 16.4 l 0.9 16.5 l 1 16.4 l 1 16.5 l 1 16.5 l 1 16.4 l 1 16.5 l 0.9 16.4 l 1 16.5 l 1 16.5 l 1 16.4 l 1 16.5 l 0.9 16.4 l 1 16.5 l 1 16.5 l 1 16.4 l 1 16.5 l 1 16.4 l 0.9 16.5 l 1 16.5 l 1 16.4 l 1 16.5 l 1 16.4 l 0.9 16.5 l 1 16.5 l 1 16.4 l 1 16.5 l 1 16.4 l 1 16.5 l 0.9 16.5 l 1 16.4 l 1 16.5 l 1 16.4 l 1 16.5 l 0.9 16.5 l 1 16.4 l 1 16.5 l 1 16.5 l 1 16.4 l 1 16.5 l 0.9 16.4 l 1 16.5 l 1 16.4 l 1 16.5 l 1 16.5 l 0.9 16.4 l 1 16.5 l 1 16.5 l 1 16.4 l 1 16.5 l 1 16.4 l 0.9 16.5 l 1 16.5 l 1 16.4 l 1 16.5 l 16.4 0.9 l 16.5 1 l 16.5 1 l 16.4 1 l 16.5 1 l 16.4 1 l 16.5 0.9 l 16.5 1 l 16.4 1 l 16.5 1 l 16.5 1 l 16.4 1 l 16.5 0.9 l 16.4 1 l 16.5 1 l 16.5 1 l 16.4 1 l 16.5 1 l 16.4 0.9 l 16.5 1 l 16.5 1 l 16.4 1 l 16.5 1 l 16.4 0.9 l 16.5 1 l 16.5 1 l 16.4 1 l 16.5 1 l 16.4 0.9 l 16.5 1 l 16.5 1 l 16.4 1 l 16.5 1 l 16.4 1 l 16.5 0.9 l 16.5 1 l 16.4 1 l 16.5 1 l 16.4 1 l 16.5 1 l 16.5 0.9 l 16.4 1 l 16.5 1 l 16.4 1 l 16.5 1 l 16.5 0.9 l 16.4 1 l 16.5 1 l 16.4 1 l 16.5 1 l 16.5 1 l 16.4 0.9 l 16.5 1 l 16.4 1 l 16.5 1 l 16.5 1 l 16.4 0.9 l 16.5 1 l 16.4 1 l 16.5 1 l 16.5 1 l 16.4 1 l 16.5 0.9 l 16.4 1 l 16.5 1 l 16.5 1 l 16.4 1 l 16.5 1 l 16.5 0.9 l 16.4 1 l 16.5 1 l 16.4 1 l 16.5 1 l 16.5 0.9 l 16.4 1 l 16.5 1 l 16.4 1 l 16.5 1 l 16.5 1 l 16.4 0.9 l 16.5 1 l 16.4 1 l 16.5 1 l 16.5 1 l 16.4 0.9 l 16.5 1 l 16.4 1 l 16.5 1 l 16.5 1 l 16.4 1 l 16.5 0.9 l 16.4 1 l 16.5 1 l 16.5 1 l 16.4 1 l 16.5 0.9 l 16.4 1 l 16.5 1 l 16.5 1 l 16.4 1 l 16.5 1 l 16.4 0.9 l 16.5 1 l 16.5 1 l 16.4 1 l 16.5 1 l 16.4 0.9 l 16.5 1 l 16.5 1 l 16.4 1 l 16.5 1 l 16.4 0.9 l 16.5 1 l 16.5 1 l 16.4 1 l 16.5 1 l 16.4 1 l 16.5 1 l 16.5 0.9 l 16.4 1 l 16.5 1 l 16.5 1 l 16.4 1 l 16.5 0.9 l 16.4 1 l 16.5 1 l 16.5 1 l 16.4 1 l -16.4 1 l -16.5 0.9 l -16.5 1 l -16.4 1 l -16.5 1 l -16.4 1 l -16.5 0.9 l -16.5 1 l -16.4 1 l -16.5 1 l -16.5 1 l -16.4 0.9 l -16.5 1 l -16.4 1 l -16.5 1 l -16.5 1 l -16.4 1 l -16.5 0.9 l -16.4 1 l -16.5 1 l -16.5 1 l -16.4 1 l -16.5 1 l -16.4 0.9 l -16.5 1 l -16.5 1 l -16.4 1 l -16.5 1 l -16.4 0.9 l -16.5 1 l -16.5 1 l -16.4 1 l -16.5 1 l -16.4 1 l -16.5 0.9 l -16.5 1 l -16.4 1 l -16.5 1 l -16.4 1 l -16.5 0.9 l -16.5 1 l -16.4 1 l -16.5 1 l -16.4 1 l -16.5 1 l -16.5 0.9 l -16.4 1 l -16.5 1 l -16.4 1 l -16.5 1 l -16.5 1 l -16.4 0.9 l -16.5 1 l -16.4 1 l -16.5 1 l -16.5 1 l -16.4 0.9 l -16.5 1 l -16.4 1 l -16.5 1 l -16.5 1 l -16.4 1 l -16.5 0.9 l -16.5 1 l -16.4 1 l -16.5 1 l -16.4 1 l -16.5 0.9 l -16.5 1 l -16.4 1 l -16.5 1 l -16.4 1 l -16.5 1 l -16.5 0.9 l -16.4 1 l -16.5 1 l -16.4 1 l -16.5 1 l -16.5 1 l -16.4 0.9 l -16.5 1 l -16.4 1 l -16.5 1 l -16.5 1 l -16.4 0.9 l -16.5 1 l -16.4 1 l -16.5 1 l -16.5 1 l -16.4 1 l -16.5 0.9 l -16.4 1 l -16.5 1 l -16.5 1 l -16.4 1 l -16.5 0.9 l -16.4 1 l -16.5 1 l -16.5 1 l -16.4 1 l -16.5 1 l -16.4 0.9 l -16.5 1 l -16.5 1 l -16.4 1 l -16.5 1 l -16.4 1 l -16.5 0.9 l -16.5 1 l -16.4 1 l -16.5 1 l -16.4 1 l -16.5 0.9 l -16.5 1 l -16.4 1 l -16.5 1 l -16.4 1 l -16.5 1 l -16.5 0.9 l -16.4 1 l -16.5 1 l -16.5 1 l -16.4 1 l -16.5 0.9 l -16.4 1 l -16.5 1 l -16.5 1 l -16.4 1" style="fill: #f0f4ff; fill-rule: nonzero; stroke: none; fill-opacity: 1" transform="matrix(0.1,0,0,-0.1,0,2829.3)"></path>       <path id="path13" d="M 11022 16775.2 l 6.8 7.6 l 6.7 7.6 l 6.8 7.7 l 6.8 7.6 l 6.8 7.6 l 6.7 7.7 l 6.8 7.6 l 6.8 7.6 l 6.8 7.7 l 6.7 7.6 l 6.8 7.6 l 6.8 7.7 l 6.7 7.6 l 6.8 7.6 l 6.8 7.7 l 6.8 7.6 l 6.7 7.6 l 6.8 7.7 l 6.8 7.6 l 6.8 7.6 l 6.7 7.7 l 6.8 7.6 l 6.8 7.6 l 6.8 7.7 l 6.7 7.6 l 6.8 7.6 l 6.8 7.7 l 6.7 7.6 l 6.8 7.6 l 6.8 7.7 l 6.8 7.6 l 6.7 7.6 l 6.8 7.7 l 6.8 7.6 l 6.8 7.6 l 6.7 7.6 l 6.8 7.7 l 6.8 7.6 l 6.8 7.6 l 6.7 7.7 l 6.8 7.6 l 6.8 7.6 l 6.7 7.7 l 6.8 7.6 l 6.8 7.6 l 6.8 7.7 l 6.7 7.6 l 6.8 7.6 l 6.8 7.7 l 6.8 7.6 l 6.7 7.6 l 6.8 7.7 l 6.8 7.6 l 6.8 7.6 l 6.7 7.7 l 6.8 7.6 l 6.8 7.6 l 6.7 7.7 l 6.8 7.6 l 6.8 7.6 l 6.8 7.7 l 6.7 7.6 l 6.8 7.6 l 6.8 7.7 l 6.8 7.6 l 6.7 7.6 l 6.8 7.7 l 6.8 7.6 l 6.7 7.6 l 6.8 7.6 l 6.8 7.7 l 6.8 7.6 l 6.7 7.7 l 6.8 7.6 l 6.8 7.6 l 6.8 7.7 l 6.7 7.6 l 6.8 7.6 l 6.8 7.7 l 6.8 7.6 l 6.7 7.6 l 6.8 7.7 l 6.8 7.6 l 6.7 7.6 l 6.8 7.6 l 6.8 7.7 l 6.8 7.6 l 6.7 7.6 l 6.8 7.7 l 6.8 7.6 l 6.8 7.6 l 6.7 7.7 l 6.8 7.6 l 6.8 7.6 l 6.8 7.7 l 6.7 7.6 l 6.8 7.6 l 6.8 7.7 l 6.7 7.6 l 6.8 7.6 l 6.8 7.7 l 6.8 7.6 l 6.7 7.6 l 6.8 7.7 l 6.8 7.6 l 6.8 7.6 l 6.7 7.7 l 6.8 7.6 l 6.8 7.6 l 6.8 7.7 l 6.7 7.6 l 6.8 7.6 l 6.8 7.7 l 6.7 7.6 l 6.8 7.6 l 6.8 7.7 l 6.8 7.6 l 6.7 7.6 l 6.8 7.6 l 6.8 7.7 l 6.8 7.6 l 6.7 7.7 l 6.8 7.6 l 6.8 7.6 l 6.7 7.7 l 6.8 7.6 l 6.8 7.6 l 6.8 7.6 l -7.7 -6.7 l -7.6 -6.8 l -7.6 -6.8 l -7.7 -6.7 l -7.6 -6.8 l -7.6 -6.8 l -7.7 -6.8 l -7.6 -6.7 l -7.6 -6.8 l -7.7 -6.8 l -7.6 -6.8 l -7.6 -6.7 l -7.7 -6.8 l -7.6 -6.8 l -7.6 -6.7 l -7.7 -6.8 l -7.6 -6.8 l -7.6 -6.8 l -7.6 -6.8 l -7.7 -6.7 l -7.6 -6.8 l -7.6 -6.8 l -7.7 -6.7 l -7.6 -6.8 l -7.6 -6.8 l -7.7 -6.8 l -7.6 -6.7 l -7.6 -6.8 l -7.7 -6.8 l -7.6 -6.8 l -7.6 -6.7 l -7.7 -6.8 l -7.6 -6.8 l -7.6 -6.7 l -7.7 -6.8 l -7.6 -6.8 l -7.6 -6.8 l -7.7 -6.7 l -7.6 -6.8 l -7.6 -6.8 l -7.7 -6.8 l -7.6 -6.7 l -7.6 -6.8 l -7.7 -6.8 l -7.6 -6.7 l -7.6 -6.8 l -7.7 -6.8 l -7.6 -6.8 l -7.6 -6.7 l -7.7 -6.8 l -7.6 -6.8 l -7.6 -6.8 l -7.7 -6.7 l -7.6 -6.8 l -7.6 -6.8 l -7.7 -6.7 l -7.6 -6.8 l -7.6 -6.8 l -7.7 -6.8 l -7.6 -6.7 l -7.6 -6.8 l -7.7 -6.8 l -7.6 -6.8 l -7.6 -6.7 l -7.6 -6.8 l -7.7 -6.8 l -7.6 -6.8 l -7.6 -6.7 l -7.7 -6.8 l -7.6 -6.8 l -7.6 -6.7 l -7.7 -6.8 l -7.6 -6.8 l -7.6 -6.8 l -7.7 -6.7 l -7.6 -6.8 l -7.6 -6.8 l -7.7 -6.8 l -7.6 -6.7 l -7.6 -6.8 l -7.7 -6.8 l -7.6 -6.8 l -7.6 -6.7 l -7.7 -6.8 l -7.6 -6.8 l -7.6 -6.7 l -7.7 -6.8 l -7.6 -6.8 l -7.6 -6.8 l -7.7 -6.7 l -7.6 -6.8 l -7.6 -6.8 l -7.7 -6.8 l -7.6 -6.7 l -7.6 -6.8 l -7.7 -6.8 l -7.6 -6.7 l -7.6 -6.8 l -7.7 -6.8 l -7.6 -6.8 l -7.6 -6.7 l -7.7 -6.8 l -7.6 -6.8 l -7.6 -6.8 l -7.7 -6.7 l -7.6 -6.8 l -7.6 -6.8 l -7.7 -6.8 l -7.6 -6.7 l -7.6 -6.8 l -7.6 -6.8 l -7.7 -6.7 l -7.6 -6.8 l -7.6 -6.8 l -7.7 -6.8 l -7.6 -6.7 l -7.6 -6.8 l -7.7 -6.8 l -7.6 -6.8 l -7.6 -6.7 l -7.7 -6.8 l -7.6 -6.8 l -7.6 -6.7 l -7.7 -6.8 l -7.6 -6.8 l -7.6 -6.8 l -7.7 -6.8 l -7.6 -6.7 l -7.6 6.7 l -7.7 6.8 l -7.6 6.8 l -7.6 6.8 l -7.7 6.8 l -7.6 6.7 l -7.6 6.8 l -7.7 6.8 l -7.6 6.7 l -7.6 6.8 l -7.7 6.8 l -7.6 6.8 l -7.6 6.7 l -7.7 6.8 l -7.6 6.8 l -7.6 6.8 l -7.7 6.7 l -7.6 6.8 l -7.6 6.8 l -7.7 6.7 l -7.6 6.8 l -7.6 6.8 l -7.7 6.8 l -7.6 6.7 l -7.6 6.8 l -7.7 6.8 l -7.6 6.8 l -7.6 6.7 l -7.6 6.8 l -7.7 6.8 l -7.6 6.8 l -7.6 6.7 l -7.7 6.8 l -7.6 6.8 l -7.6 6.7 l -7.7 6.8 l -7.6 6.8 l -7.6 6.8 l -7.7 6.7 l -7.6 6.8 l -7.6 6.8 l -7.7 6.8 l -7.6 6.7 l -7.6 6.8 l -7.7 6.8 l -7.6 6.7 l -7.6 6.8 l -7.7 6.8 l -7.6 6.8 l -7.6 6.7 l -7.7 6.8 l -7.6 6.8 l -7.6 6.8 l -7.7 6.7 l -7.6 6.8 l -7.6 6.8 l -7.7 6.8 l -7.6 6.7 l -7.6 6.8 l -7.7 6.8 l -7.6 6.7 l -7.6 6.8 l -7.7 6.8 l -7.6 6.8 l -7.6 6.7 l -7.7 6.8 l -7.6 6.8 l -7.6 6.8 l -7.7 6.7 l -7.6 6.8 l -7.6 6.8 l -7.7 6.8 l -7.6 6.7 l -7.6 6.8 l -7.7 6.8 l -7.6 6.7 l -7.6 6.8 l -7.6 6.8 l -7.7 6.8 l -7.6 6.7 l -7.6 6.8 l -7.7 6.8 l -7.6 6.8 l -7.6 6.7 l -7.7 6.8 l -7.6 6.8 l -7.6 6.7 l -7.7 6.8 l -7.6 6.8 l -7.6 6.8 l -7.7 6.7 l -7.6 6.8 l -7.6 6.8 l -7.7 6.8 l -7.6 6.7 l -7.6 6.8 l -7.7 6.8 l -7.6 6.7 l -7.6 6.8 l -7.7 6.8 l -7.6 6.8 l -7.6 6.7 l -7.7 6.8 l -7.6 6.8 l -7.6 6.8 l -7.7 6.7 l -7.6 6.8 l -7.6 6.8 l -7.7 6.7 l -7.6 6.8 l -7.6 6.8 l -7.7 6.8 l -7.6 6.8 l -7.6 6.7 l -7.7 6.8 l -7.6 6.8 l -7.6 6.7 l -7.7 6.8 l -7.6 6.8 l -7.6 6.8 l -7.6 6.7 l -7.6 6.8 l -7.6 6.8 l -7.6 6.8 l -7.6 6.7 l -7.6 6.8 l -7.6 6.8 l -7.6 6.7 l 6.8 -7.6 l 6.8 -7.6 l 6.8 -7.6 l 6.8 -7.7 l 6.8 -7.6 l 6.8 -7.6 l 6.8 -7.7 l 6.8 -7.6 l 6.8 -7.7 l 6.8 -7.6 l 6.7 -7.6 l 6.8 -7.6 l 6.8 -7.7 l 6.7 -7.6 l 6.8 -7.6 l 6.8 -7.7 l 6.8 -7.6 l 6.7 -7.6 l 6.8 -7.7 l 6.8 -7.6 l 6.8 -7.6 l 6.7 -7.7 l 6.8 -7.6 l 6.8 -7.6 l 6.7 -7.7 l 6.8 -7.6 l 6.8 -7.6 l 6.8 -7.7 l 6.7 -7.6 l 6.8 -7.6 l 6.8 -7.7 l 6.8 -7.6 l 6.7 -7.6 l 6.8 -7.7 l 6.8 -7.6 l 6.8 -7.6 l 6.7 -7.7 l 6.8 -7.6 l 6.8 -7.6 l 6.7 -7.7 l 6.8 -7.6 l 6.8 -7.6 l 6.8 -7.7 l 6.7 -7.6 l 6.8 -7.6 l 6.8 -7.7 l 6.8 -7.6 l 6.7 -7.6 l 6.8 -7.7 l 6.8 -7.6 l 6.8 -7.6 l 6.7 -7.6 l 6.8 -7.7 l 6.8 -7.6 l 6.7 -7.6 l 6.8 -7.7 l 6.8 -7.6 l 6.8 -7.7 l 6.7 -7.6 l 6.8 -7.6 l 6.8 -7.6 l 6.8 -7.7 l 6.7 -7.6 l 6.8 -7.6 l 6.8 -7.7 l 6.7 -7.6 l 6.8 -7.6 l 6.8 -7.7 l 6.8 -7.6 l 6.7 -7.6 l 6.8 -7.7 l 6.8 -7.6 l 6.8 -7.6 l 6.7 -7.7 l 6.8 -7.6 l 6.8 -7.6 l 6.8 -7.7 l 6.7 -7.6 l 6.8 -7.6 l 6.8 -7.7 l 6.7 -7.6 l 6.8 -7.6 l 6.8 -7.7 l 6.8 -7.6 l 6.7 -7.6 l 6.8 -7.7 l 6.8 -7.6 l 6.8 -7.6 l 6.7 -7.7 l 6.8 -7.6 l 6.8 -7.6 l 6.8 -7.7 l 6.7 -7.6 l 6.8 -7.6 l 6.8 -7.7 l 6.7 -7.6 l 6.8 -7.6 l 6.8 -7.7 l 6.8 -7.6 l 6.7 -7.6 l 6.8 -7.6 l 6.8 -7.7 l 6.8 -7.6 l 6.7 -7.6 l 6.8 -7.7 l 6.8 -7.6 l 6.7 -7.7 l 6.8 -7.6 l 6.8 -7.6 l 6.8 -7.6 l 6.7 -7.7 l 6.8 -7.6 l 6.8 -7.6 l 6.8 -7.7 l 6.7 -7.6 l 6.8 -7.6 l 6.8 -7.7 l 6.8 -7.6 l 6.7 -7.6 l 6.8 -7.7 l 6.8 -7.6 l 6.7 -7.6 l 6.8 -7.7 l 6.8 -7.6 l 6.8 -7.6 l 6.7 -7.7 l 6.8 -7.6 l 6.8 -7.6 l -6.8 -7.7 l -6.8 -7.6 l -6.7 -7.6 l -6.8 -7.7 l -6.8 -7.6 l -6.8 -7.6 l -6.7 -7.7 l -6.8 -7.6 l -6.8 -7.6 l -6.7 -7.7 l -6.8 -7.6 l -6.8 -7.6 l -6.8 -7.7 l -6.7 -7.6 l -6.8 -7.6 l -6.8 -7.7 l -6.8 -7.6 l -6.7 -7.6 l -6.8 -7.6 l -6.8 -7.7 l -6.8 -7.6 l -6.7 -7.6 l -6.8 -7.7 l -6.8 -7.6 l -6.7 -7.6 l -6.8 -7.7 l -6.8 -7.6 l -6.8 -7.7 l -6.7 -7.6 l -6.8 -7.6 l -6.8 -7.6 l -6.8 -7.7 l -6.7 -7.6 l -6.8 -7.6 l -6.8 -7.7 l -6.7 -7.6 l -6.8 -7.6 l -6.8 -7.7 l -6.8 -7.6 l -6.7 -7.6 l -6.8 -7.7 l -6.8 -7.6 l -6.8 -7.6 l -6.7 -7.7 l -6.8 -7.6 l -6.8 -7.6 l -6.8 -7.7 l -6.7 -7.6 l -6.8 -7.6 l -6.8 -7.7 l -6.7 -7.6 l -6.8 -7.6 l -6.8 -7.7 l -6.8 -7.6 l -6.7 -7.6 l -6.8 -7.7 l -6.8 -7.6 l -6.8 -7.6 l -6.7 -7.7 l -6.8 -7.6 l -6.8 -7.6 l -6.8 -7.7 l -6.7 -7.6 l -6.8 -7.6 l -6.8 -7.6 l -6.7 -7.7 l -6.8 -7.6 l -6.8 -7.6 l -6.8 -7.7 l -6.7 -7.6 l -6.8 -7.6 l -6.8 -7.7 l -6.8 -7.6 l -6.7 -7.6 l -6.8 -7.7 l -6.8 -7.6 l -6.7 -7.6 l -6.8 -7.7 l -6.8 -7.6 l -6.8 -7.6 l -6.7 -7.7 l -6.8 -7.6 l -6.8 -7.6 l -6.8 -7.7 l -6.7 -7.6 l -6.8 -7.6 l -6.8 -7.7 l -6.8 -7.6 l -6.7 -7.6 l -6.8 -7.7 l -6.8 -7.6 l -6.7 -7.6 l -6.8 -7.7 l -6.8 -7.6 l -6.8 -7.6 l -6.7 -7.7 l -6.8 -7.6 l -6.8 -7.6 l -6.8 -7.7 l -6.7 -7.6 l -6.8 -7.6 l -6.8 -7.7 l -6.8 -7.6 l -6.7 -7.6 l -6.8 -7.7 l -6.8 -7.6 l -6.7 -7.6 l -6.8 -7.6 l -6.8 -7.7 l -6.8 -7.6 l -6.7 -7.7 l -6.8 -7.6 l -6.8 -7.6 l -6.8 -7.6 l -6.7 -7.7 l -6.8 -7.6 l -6.8 -7.6 l -6.7 -7.7 l -6.8 -7.6 l -6.8 -7.6 l -6.8 -7.7 l -6.8 -7.6 l -6.8 -7.6 l -6.8 -7.7 l -6.8 -7.6 l -6.8 -7.6 l -6.8 -7.7 l -6.8 -7.6 l 7.6 6.8 l 7.6 6.7 l 7.6 6.8 l 7.6 6.8 l 7.6 6.8 l 7.6 6.7 l 7.6 6.8 l 7.6 6.8 l 7.6 6.8 l 7.6 6.7 l 7.7 6.8 l 7.6 6.8 l 7.6 6.8 l 7.7 6.7 l 7.6 6.8 l 7.6 6.8 l 7.7 6.7 l 7.6 6.8 l 7.6 6.8 l 7.7 6.8 l 7.6 6.7 l 7.6 6.8 l 7.7 6.8 l 7.6 6.8 l 7.6 6.7 l 7.7 6.8 l 7.6 6.8 l 7.6 6.7 l 7.7 6.8 l 7.6 6.8 l 7.6 6.8 l 7.7 6.7 l 7.6 6.8 l 7.6 6.8 l 7.7 6.8 l 7.6 6.7 l 7.6 6.8 l 7.7 6.8 l 7.6 6.8 l 7.6 6.7 l 7.7 6.8 l 7.6 6.8 l 7.6 6.7 l 7.7 6.8 l 7.6 6.8 l 7.6 6.8 l 7.7 6.7 l 7.6 6.8 l 7.6 6.8 l 7.6 6.8 l 7.7 6.7 l 7.6 6.8 l 7.6 6.8 l 7.7 6.7 l 7.6 6.8 l 7.6 6.8 l 7.7 6.8 l 7.6 6.7 l 7.6 6.8 l 7.7 6.8 l 7.6 6.8 l 7.6 6.7 l 7.7 6.8 l 7.6 6.8 l 7.6 6.7 l 7.7 6.8 l 7.6 6.8 l 7.6 6.8 l 7.7 6.8 l 7.6 6.7 l 7.6 6.8 l 7.7 6.8 l 7.6 6.7 l 7.6 6.8 l 7.7 6.8 l 7.6 6.8 l 7.6 6.7 l 7.7 6.8 l 7.6 6.8 l 7.6 6.8 l 7.7 6.7 l 7.6 6.8 l 7.6 6.8 l 7.7 6.7 l 7.6 6.8 l 7.6 6.8 l 7.7 6.8 l 7.6 6.7 l 7.6 6.8 l 7.7 6.8 l 7.6 6.8 l 7.6 6.7 l 7.7 6.8 l 7.6 6.8 l 7.6 6.8 l 7.6 6.7 l 7.7 6.8 l 7.6 6.8 l 7.6 6.7 l 7.7 6.8 l 7.6 6.8 l 7.6 6.8 l 7.7 6.7 l 7.6 6.8 l 7.6 6.8 l 7.7 6.8 l 7.6 6.7 l 7.6 6.8 l 7.7 6.8 l 7.6 6.8 l 7.6 6.7 l 7.7 6.8 l 7.6 6.8 l 7.6 6.7 l 7.7 6.8 l 7.6 6.8 l 7.6 6.8 l 7.7 6.7 l 7.6 6.8 l 7.6 6.8 l 7.7 6.8 l 7.6 6.7 l 7.6 6.8 l 7.7 6.8 l 7.6 6.8 l 7.6 6.7 l 7.7 6.8 l 7.6 6.8 l 7.6 -6.8 l 7.7 -6.8 l 7.6 -6.7 l 7.6 -6.8 l 7.7 -6.8 l 7.6 -6.8 l 7.6 -6.7 l 7.7 -6.8 l 7.6 -6.8 l 7.6 -6.8 l 7.6 -6.7 l 7.7 -6.8 l 7.6 -6.8 l 7.6 -6.8 l 7.7 -6.7 l 7.6 -6.8 l 7.6 -6.8 l 7.7 -6.7 l 7.6 -6.8 l 7.6 -6.8 l 7.7 -6.8 l 7.6 -6.7 l 7.6 -6.8 l 7.7 -6.8 l 7.6 -6.8 l 7.6 -6.7 l 7.7 -6.8 l 7.6 -6.8 l 7.6 -6.8 l 7.7 -6.7 l 7.6 -6.8 l 7.6 -6.8 l 7.7 -6.7 l 7.6 -6.8 l 7.6 -6.8 l 7.7 -6.8 l 7.6 -6.7 l 7.6 -6.8 l 7.7 -6.8 l 7.6 -6.8 l 7.6 -6.7 l 7.7 -6.8 l 7.6 -6.8 l 7.6 -6.8 l 7.7 -6.7 l 7.6 -6.8 l 7.6 -6.8 l 7.7 -6.7 l 7.6 -6.8 l 7.6 -6.8 l 7.7 -6.8 l 7.6 -6.7 l 7.6 -6.8 l 7.7 -6.8 l 7.6 -6.8 l 7.6 -6.7 l 7.7 -6.8 l 7.6 -6.8 l 7.6 -6.7 l 7.6 -6.8 l 7.7 -6.8 l 7.6 -6.8 l 7.6 -6.8 l 7.7 -6.7 l 7.6 -6.8 l 7.6 -6.8 l 7.7 -6.7 l 7.6 -6.8 l 7.6 -6.8 l 7.7 -6.8 l 7.6 -6.7 l 7.6 -6.8 l 7.7 -6.8 l 7.6 -6.8 l 7.6 -6.7 l 7.7 -6.8 l 7.6 -6.8 l 7.6 -6.7 l 7.7 -6.8 l 7.6 -6.8 l 7.6 -6.8 l 7.7 -6.7 l 7.6 -6.8 l 7.6 -6.8 l 7.7 -6.8 l 7.6 -6.7 l 7.6 -6.8 l 7.7 -6.8 l 7.6 -6.7 l 7.6 -6.8 l 7.7 -6.8 l 7.6 -6.8 l 7.6 -6.7 l 7.7 -6.8 l 7.6 -6.8 l 7.6 -6.8 l 7.7 -6.7 l 7.6 -6.8 l 7.6 -6.8 l 7.7 -6.8 l 7.6 -6.7 l 7.6 -6.8 l 7.7 -6.8 l 7.6 -6.7 l 7.6 -6.8 l 7.7 -6.8 l 7.6 -6.8 l 7.6 -6.7 l 7.6 -6.8 l 7.7 -6.8 l 7.6 -6.8 l 7.6 -6.7 l 7.7 -6.8 l 7.6 -6.8 l 7.6 -6.7 l 7.7 -6.8 l 7.6 -6.8 l 7.6 -6.8 l 7.7 -6.7 l 7.6 -6.8 l 7.6 -6.8 l 7.7 -6.8 l 7.6 -6.7 l 7.6 -6.8 l 7.7 -6.8 l 7.6 -6.8 l 7.6 -6.7 l 7.7 -6.8 l -6.8 7.6 l -6.8 7.7 l -6.8 7.6 l -6.7 7.6 l -6.8 7.7 l -6.8 7.6 l -6.7 7.6 l -6.8 7.7 l -6.8 7.6 l -6.8 7.6 l -6.7 7.7 l -6.8 7.6 l -6.8 7.6 l -6.8 7.7 l -6.7 7.6 l -6.8 7.6 l -6.8 7.6 l -6.7 7.7 l -6.8 7.6 l -6.8 7.7 l -6.8 7.6 l -6.7 7.6 l -6.8 7.7 l -6.8 7.6 l -6.8 7.6 l -6.7 7.6 l -6.8 7.7 l -6.8 7.6 l -6.8 7.6 l -6.7 7.7 l -6.8 7.6 l -6.8 7.6 l -6.7 7.7 l -6.8 7.6 l -6.8 7.6 l -6.8 7.7 l -6.7 7.6 l -6.8 7.6 l -6.8 7.7 l -6.8 7.6 l -6.7 7.6 l -6.8 7.7 l -6.8 7.6 l -6.8 7.6 l -6.7 7.7 l -6.8 7.6 l -6.8 7.6 l -6.7 7.7 l -6.8 7.6 l -6.8 7.6 l -6.8 7.7 l -6.7 7.6 l -6.8 7.6 l -6.8 7.7 l -6.8 7.6 l -6.7 7.6 l -6.8 7.7 l -6.8 7.6 l -6.8 7.6 l -6.7 7.7 l -6.8 7.6 l -6.8 7.6 l -6.7 7.7 l -6.8 7.6 l -6.8 7.6 l -6.8 7.6 l -6.7 7.7 l -6.8 7.6 l -6.8 7.7 l -6.8 7.6 l -6.7 7.6 l -6.8 7.6 l -6.8 7.7 l -6.7 7.6 l -6.8 7.6 l -6.8 7.7 l -6.8 7.6 l -6.7 7.6 l -6.8 7.7 l -6.8 7.6 l -6.8 7.6 l -6.7 7.7 l -6.8 7.6 l -6.8 7.6 l -6.8 7.7 l -6.7 7.6 l -6.8 7.6 l -6.8 7.7 l -6.7 7.6 l -6.8 7.6 l -6.8 7.7 l -6.8 7.6 l -6.7 7.6 l -6.8 7.7 l -6.8 7.6 l -6.8 7.6 l -6.7 7.7 l -6.8 7.6 l -6.8 7.6 l -6.8 7.7 l -6.7 7.6 l -6.8 7.6 l -6.8 7.7 l -6.7 7.6 l -6.8 7.6 l -6.8 7.7 l -6.8 7.6 l -6.7 7.6 l -6.8 7.7 l -6.8 7.6 l -6.8 7.6 l -6.7 7.7 l -6.8 7.6 l -6.8 7.6 l -6.8 7.6 l -6.7 7.7 l -6.8 7.6 l -6.8 7.7 l -6.7 7.6 l -6.8 7.6 l -6.8 7.6 l -6.8 7.7 l -6.7 7.6 l -6.8 7.6 l -6.8 7.7 l -6.8 7.6 l -6.7 7.6 l -6.8 7.7" style="fill: #f0f4ff; fill-rule: nonzero; stroke: none; fill-opacity: 1" transform="matrix(0.1,0,0,-0.1,0,2829.3)"></path>            </g>   </g>      </svg>