<svg version="1.1" id="svg1" sodipodi:docname="SL-122720-39270-09.eps" xmlns:inkscape="http://www.inkscape.org/namespaces/inkscape" xmlns:sodipodi="http://sodipodi.sourceforge.net/DTD/sodipodi-0.dtd" xmlns="http://www.w3.org/2000/svg" xmlns:svg="http://www.w3.org/2000/svg" viewBox="1530.48 944.18 423.63 423.62">   <defs id="defs1"></defs>      <g id="g1" inkscape:groupmode="layer" inkscape:label="1">     <g id="group-R5">             <path id="path5" d="M 17422.9 18851.2 l -2.4 -14.1 l -2.3 -14.2 l -2.4 -14.1 l -2.4 -14.2 l -2.4 -14.2 l -2.4 -14.1 l -2.4 -14.2 l -2.4 -14.1 l -2.4 -14.2 l -2.4 -14.1 l -2.3 -14.2 l -2.4 -14.2 l -2.4 -14.1 l -2.4 -14.2 l -2.4 -14.1 l -2.4 -14.2 l -2.4 -14.1 l -2.4 -14.2 l -2.4 -14.2 l -2.3 -14.1 l -2.4 -14.2 l -2.4 -14.1 l -2.4 -14.2 l -2.4 -14.2 l -2.4 -14.1 l -2.4 -14.2 l -2.4 -14.1 l -2.4 -14.2 l -2.4 -14.2 l -2.3 -14.1 l -2.4 -14.2 l -2.4 -14.1 l -2.4 -14.2 l -2.4 -14.1 l -2.4 -14.2 l -2.4 -14.2 l -2.4 -14.1 l -2.4 -14.2 l -2.3 -14.1 l -2.4 -14.2 l -2.4 -14.2 l -2.4 -14.1 l -2.4 -14.2 l -2.4 -14.1 l -2.4 -14.2 l -2.4 -14.2 l -2.4 -14.1 l -2.3 -14.2 l -2.4 -14.1 l -2.4 -14.2 l -2.4 -14.1 l -2.4 -14.2 l -2.4 -14.2 l -2.4 -14.1 l -2.4 -14.2 l -2.4 -14.1 l -2.3 -14.2 l -2.4 -14.1 l -2.4 -14.2 l -2.4 -14.2 l -2.4 -14.1 l -2.4 -14.2 l -2.4 -14.1 l -2.4 -14.2 l -2.4 -14.2 l -2.4 -14.1 l -2.3 -14.2 l -2.4 -14.1 l -2.4 -14.2 l -2.4 -14.1 l -2.4 -14.2 l -2.4 -14.2 l -2.4 -14.1 l -2.4 -14.2 l -2.4 -14.1 l -2.3 -14.2 l -2.4 -14.2 l -2.4 -14.1 l -2.4 -14.2 l -2.4 -14.1 l -2.4 -14.2 l -2.4 -14.1 l -2.4 -14.2 l -2.4 -14.2 l -2.3 -14.1 l -2.4 -14.2 l -2.4 -14.1 l -2.4 -14.2 l -2.4 -14.2 l -2.4 -14.1 l -2.4 -14.2 l -2.4 -14.1 l -2.4 -14.2 l -2.3 -14.1 l -2.4 -14.2 l -2.4 -14.2 l -2.4 -14.1 l -2.4 -14.2 l -2.4 -14.1 l -2.4 -14.2 l -2.4 -14.2 l -2.4 -14.1 l -2.4 -14.2 l -2.3 -14.1 l -2.4 -14.2 l -2.4 -14.2 l -2.4 -14.1 l -2.4 -14.2 l -2.4 -14.1 l -2.4 -14.2 l -2.4 -14.1 l -2.4 -14.2 l -2.3 -14.2 l -2.4 -14.1 l -2.4 -14.2 l -2.4 -14.1 l -2.4 -14.2 l -2.4 -14.2 l -2.4 -14.1 l -2.4 -14.2 l -2.4 -14.1 l -2.3 -14.2 l -2.4 -14.1 l -2.4 -14.2 l -2.4 -14.2 l -2.4 -14.1 l -2.4 -14.2 l -2.4 -14.1 l -14.1 -2.4 l -14.2 -2.4 l -14.2 -2.4 l -14.1 -2.4 l -14.2 -2.4 l -14.1 -2.4 l -14.2 -2.4 l -14.1 -2.4 l -14.2 -2.3 l -14.2 -2.4 l -14.1 -2.4 l -14.2 -2.4 l -14.1 -2.4 l -14.2 -2.4 l -14.2 -2.4 l -14.1 -2.4 l -14.2 -2.4 l -14.1 -2.4 l -14.2 -2.3 l -14.2 -2.4 l -14.1 -2.4 l -14.2 -2.4 l -14.1 -2.4 l -14.2 -2.4 l -14.1 -2.4 l -14.2 -2.4 l -14.2 -2.4 l -14.1 -2.3 l -14.2 -2.4 l -14.1 -2.4 l -14.2 -2.4 l -14.2 -2.4 l -14.1 -2.4 l -14.2 -2.4 l -14.1 -2.4 l -14.2 -2.4 l -14.1 -2.3 l -14.2 -2.4 l -14.2 -2.4 l -14.1 -2.4 l -14.2 -2.4 l -14.1 -2.4 l -14.2 -2.4 l -14.2 -2.4 l -14.1 -2.4 l -14.2 -2.3 l -14.1 -2.4 l -14.2 -2.4 l -14.2 -2.4 l -14.1 -2.4 l -14.2 -2.4 l -14.1 -2.4 l -14.2 -2.4 l -14.1 -2.4 l -14.2 -2.4 l -14.2 -2.3 l -14.1 -2.4 l -14.2 -2.4 l -14.1 -2.4 l -14.2 -2.4 l -14.2 -2.4 l -14.1 -2.4 l -14.2 -2.4 l -14.1 -2.4 l -14.2 -2.3 l -14.1 -2.4 l -14.2 -2.4 l -14.2 -2.4 l -14.1 -2.4 l -14.2 -2.4 l -14.1 -2.4 l -14.2 -2.4 l -14.2 -2.4 l -14.1 -2.4 l -14.2 -2.3 l -14.1 -2.4 l -14.2 -2.4 l -14.1 -2.4 l -14.2 -2.4 l -14.2 -2.4 l -14.1 -2.4 l -14.2 -2.4 l -14.1 -2.4 l -14.2 -2.3 l -14.2 -2.4 l -14.1 -2.4 l -14.2 -2.4 l -14.1 -2.4 l -14.2 -2.4 l -14.2 -2.4 l -14.1 -2.4 l -14.2 -2.4 l -14.1 -2.4 l -14.2 -2.3 l -14.1 -2.4 l -14.2 -2.4 l -14.2 -2.4 l -14.1 -2.4 l -14.2 -2.4 l -14.1 -2.4 l -14.2 -2.4 l -14.2 -2.4 l -14.1 -2.3 l -14.2 -2.4 l -14.1 -2.4 l -14.2 -2.4 l -14.1 -2.4 l -14.2 -2.4 l -14.2 -2.4 l -14.1 -2.4 l -14.2 -2.4 l -14.1 -2.3 l -14.2 -2.4 l -14.2 -2.4 l -14.1 -2.4 l -14.2 -2.4 l -14.1 -2.4 l -14.2 -2.4 l -14.1 -2.4 l -14.2 -2.4 l -14.2 -2.4 l -14.1 -2.4 l -14.2 -2.3 l -14.1 -2.4 l -14.2 -2.4 l -14.2 -2.4 l -14.1 -2.4 l -14.2 -2.4 l 14.2 -2.4 l 14.1 -2.4 l 14.2 -2.4 l 14.2 -2.3 l 14.1 -2.4 l 14.2 -2.4 l 14.1 -2.4 l 14.2 -2.4 l 14.2 -2.4 l 14.1 -2.4 l 14.2 -2.4 l 14.1 -2.4 l 14.2 -2.3 l 14.1 -2.4 l 14.2 -2.4 l 14.2 -2.4 l 14.1 -2.4 l 14.2 -2.4 l 14.1 -2.4 l 14.2 -2.4 l 14.2 -2.4 l 14.1 -2.3 l 14.2 -2.4 l 14.1 -2.4 l 14.2 -2.4 l 14.1 -2.4 l 14.2 -2.4 l 14.2 -2.4 l 14.1 -2.4 l 14.2 -2.4 l 14.1 -2.3 l 14.2 -2.4 l 14.2 -2.4 l 14.1 -2.4 l 14.2 -2.4 l 14.1 -2.4 l 14.2 -2.4 l 14.1 -2.4 l 14.2 -2.4 l 14.2 -2.4 l 14.1 -2.3 l 14.2 -2.4 l 14.1 -2.4 l 14.2 -2.4 l 14.2 -2.4 l 14.1 -2.4 l 14.2 -2.4 l 14.1 -2.4 l 14.2 -2.4 l 14.2 -2.3 l 14.1 -2.4 l 14.2 -2.4 l 14.1 -2.4 l 14.2 -2.4 l 14.1 -2.4 l 14.2 -2.4 l 14.2 -2.4 l 14.1 -2.4 l 14.2 -2.3 l 14.1 -2.4 l 14.2 -2.4 l 14.2 -2.4 l 14.1 -2.4 l 14.2 -2.4 l 14.1 -2.4 l 14.2 -2.4 l 14.1 -2.4 l 14.2 -2.4 l 14.2 -2.3 l 14.1 -2.4 l 14.2 -2.4 l 14.1 -2.4 l 14.2 -2.4 l 14.2 -2.4 l 14.1 -2.4 l 14.2 -2.4 l 14.1 -2.4 l 14.2 -2.3 l 14.1 -2.4 l 14.2 -2.4 l 14.2 -2.4 l 14.1 -2.4 l 14.2 -2.4 l 14.1 -2.4 l 14.2 -2.4 l 14.2 -2.4 l 14.1 -2.3 l 14.2 -2.4 l 14.1 -2.4 l 14.2 -2.4 l 14.2 -2.4 l 14.1 -2.4 l 14.2 -2.4 l 14.1 -2.4 l 14.2 -2.4 l 14.1 -2.4 l 14.2 -2.3 l 14.2 -2.4 l 14.1 -2.4 l 14.2 -2.4 l 14.1 -2.4 l 14.2 -2.4 l 14.2 -2.4 l 14.1 -2.4 l 14.2 -2.4 l 14.1 -2.3 l 14.2 -2.4 l 14.1 -2.4 l 14.2 -2.4 l 14.2 -2.4 l 14.1 -2.4 l 14.2 -2.4 l 14.1 -2.4 l 14.2 -2.4 l 14.2 -2.3 l 14.1 -2.4 l 14.2 -2.4 l 14.1 -2.4 l 14.2 -2.4 l 14.2 -2.4 l 14.1 -2.4 l 14.2 -2.4 l 14.1 -2.4 l 14.2 -2.4 l 14.1 -2.4 l 14.2 -2.3 l 14.2 -2.4 l 14.1 -2.4 l 2.4 -14.2 l 2.4 -14.1 l 2.4 -14.2 l 2.4 -14.1 l 2.4 -14.2 l 2.4 -14.2 l 2.3 -14.1 l 2.4 -14.2 l 2.4 -14.1 l 2.4 -14.2 l 2.4 -14.2 l 2.4 -14.1 l 2.4 -14.2 l 2.4 -14.1 l 2.4 -14.2 l 2.3 -14.1 l 2.4 -14.2 l 2.4 -14.2 l 2.4 -14.1 l 2.4 -14.2 l 2.4 -14.1 l 2.4 -14.2 l 2.4 -14.2 l 2.4 -14.1 l 2.3 -14.2 l 2.4 -14.1 l 2.4 -14.2 l 2.4 -14.1 l 2.4 -14.2 l 2.4 -14.2 l 2.4 -14.1 l 2.4 -14.2 l 2.4 -14.1 l 2.4 -14.2 l 2.3 -14.2 l 2.4 -14.1 l 2.4 -14.2 l 2.4 -14.1 l 2.4 -14.2 l 2.4 -14.2 l 2.4 -14.1 l 2.4 -14.2 l 2.4 -14.1 l 2.3 -14.2 l 2.4 -14.1 l 2.4 -14.2 l 2.4 -14.2 l 2.4 -14.1 l 2.4 -14.2 l 2.4 -14.1 l 2.4 -14.2 l 2.4 -14.1 l 2.3 -14.2 l 2.4 -14.2 l 2.4 -14.1 l 2.4 -14.2 l 2.4 -14.1 l 2.4 -14.2 l 2.4 -14.2 l 2.4 -14.1 l 2.4 -14.2 l 2.3 -14.1 l 2.4 -14.2 l 2.4 -14.1 l 2.4 -14.2 l 2.4 -14.2 l 2.4 -14.1 l 2.4 -14.2 l 2.4 -14.1 l 2.4 -14.2 l 2.4 -14.2 l 2.3 -14.1 l 2.4 -14.2 l 2.4 -14.1 l 2.4 -14.2 l 2.4 -14.2 l 2.4 -14.1 l 2.4 -14.2 l 2.4 -14.1 l 2.4 -14.2 l 2.3 -14.2 l 2.4 -14.1 l 2.4 -14.2 l 2.4 -14.1 l 2.4 -14.2 l 2.4 -14.1 l 2.4 -14.2 l 2.4 -14.2 l 2.4 -14.1 l 2.3 -14.2 l 2.4 -14.1 l 2.4 -14.2 l 2.4 -14.1 l 2.4 -14.2 l 2.4 -14.2 l 2.4 -14.1 l 2.4 -14.2 l 2.4 -14.1 l 2.3 -14.2 l 2.4 -14.2 l 2.4 -14.1 l 2.4 -14.2 l 2.4 -14.1 l 2.4 -14.2 l 2.4 -14.1 l 2.4 -14.2 l 2.4 -14.2 l 2.4 -14.1 l 2.3 -14.2 l 2.4 -14.1 l 2.4 -14.2 l 2.4 -14.2 l 2.4 -14.1 l 2.4 -14.2 l 2.4 -14.1 l 2.4 -14.2 l 2.4 -14.1 l 2.3 -14.2 l 2.4 -14.2 l 2.4 -14.1 l 2.4 -14.2 l 2.4 -14.1 l 2.4 -14.2 l 2.4 -14.2 l 2.4 -14.1 l 2.4 -14.2 l 2.3 -14.1 l 2.4 -14.2 l 2.4 14.2 l 2.4 14.1 l 2.4 14.2 l 2.4 14.1 l 2.4 14.2 l 2.4 14.2 l 2.4 14.1 l 2.3 14.2 l 2.4 14.1 l 2.4 14.2 l 2.4 14.2 l 2.4 14.1 l 2.4 14.2 l 2.4 14.1 l 2.4 14.2 l 2.4 14.1 l 2.4 14.2 l 2.3 14.2 l 2.4 14.1 l 2.4 14.2 l 2.4 14.1 l 2.4 14.2 l 2.4 14.2 l 2.4 14.1 l 2.4 14.2 l 2.4 14.1 l 2.3 14.2 l 2.4 14.1 l 2.4 14.2 l 2.4 14.2 l 2.4 14.1 l 2.4 14.2 l 2.4 14.1 l 2.4 14.2 l 2.4 14.2 l 2.4 14.1 l 2.3 14.2 l 2.4 14.1 l 2.4 14.2 l 2.4 14.1 l 2.4 14.2 l 2.4 14.2 l 2.4 14.1 l 2.4 14.2 l 2.4 14.1 l 2.3 14.2 l 2.4 14.1 l 2.4 14.2 l 2.4 14.2 l 2.4 14.1 l 2.4 14.2 l 2.4 14.1 l 2.4 14.2 l 2.4 14.2 l 2.4 14.1 l 2.3 14.2 l 2.4 14.1 l 2.4 14.2 l 2.4 14.2 l 2.4 14.1 l 2.4 14.2 l 2.4 14.1 l 2.4 14.2 l 2.4 14.2 l 2.3 14.1 l 2.4 14.2 l 2.4 14.1 l 2.4 14.2 l 2.4 14.1 l 2.4 14.2 l 2.4 14.2 l 2.4 14.1 l 2.4 14.2 l 2.4 14.1 l 2.3 14.2 l 2.4 14.2 l 2.4 14.1 l 2.4 14.2 l 2.4 14.1 l 2.4 14.2 l 2.4 14.1 l 2.4 14.2 l 2.4 14.2 l 2.3 14.1 l 2.4 14.2 l 2.4 14.1 l 2.4 14.2 l 2.4 14.1 l 2.4 14.2 l 2.4 14.2 l 2.4 14.1 l 2.4 14.2 l 2.4 14.1 l 2.3 14.2 l 2.4 14.2 l 2.4 14.1 l 2.4 14.2 l 2.4 14.1 l 2.4 14.2 l 2.4 14.2 l 2.4 14.1 l 2.4 14.2 l 2.3 14.1 l 2.4 14.2 l 2.4 14.1 l 2.4 14.2 l 2.4 14.2 l 2.4 14.1 l 2.4 14.2 l 2.4 14.1 l 2.4 14.2 l 2.3 14.2 l 2.4 14.1 l 2.4 14.2 l 2.4 14.1 l 2.4 14.2 l 2.4 14.1 l 2.4 14.2 l 2.4 14.2 l 2.4 14.1 l 2.4 14.2 l 2.3 14.1 l 2.4 14.2 l 2.4 14.2 l 2.4 14.1 l 2.4 14.2 l 2.4 14.1 l 2.4 14.2 l 14.1 2.4 l 14.2 2.4 l 14.2 2.3 l 14.1 2.4 l 14.2 2.4 l 14.1 2.4 l 14.2 2.4 l 14.1 2.4 l 14.2 2.4 l 14.2 2.4 l 14.1 2.4 l 14.2 2.4 l 14.1 2.4 l 14.2 2.3 l 14.2 2.4 l 14.1 2.4 l 14.2 2.4 l 14.1 2.4 l 14.2 2.4 l 14.1 2.4 l 14.2 2.4 l 14.2 2.4 l 14.1 2.3 l 14.2 2.4 l 14.1 2.4 l 14.2 2.4 l 14.2 2.4 l 14.1 2.4 l 14.2 2.4 l 14.1 2.4 l 14.2 2.4 l 14.1 2.3 l 14.2 2.4 l 14.2 2.4 l 14.1 2.4 l 14.2 2.4 l 14.1 2.4 l 14.2 2.4 l 14.2 2.4 l 14.1 2.4 l 14.2 2.4 l 14.1 2.3 l 14.2 2.4 l 14.2 2.4 l 14.1 2.4 l 14.2 2.4 l 14.1 2.4 l 14.2 2.4 l 14.1 2.4 l 14.2 2.4 l 14.2 2.3 l 14.1 2.4 l 14.2 2.4 l 14.1 2.4 l 14.2 2.4 l 14.2 2.4 l 14.1 2.4 l 14.2 2.4 l 14.1 2.4 l 14.2 2.3 l 14.1 2.4 l 14.2 2.4 l 14.2 2.4 l 14.1 2.4 l 14.2 2.4 l 14.1 2.4 l 14.2 2.4 l 14.2 2.4 l 14.1 2.4 l 14.2 2.3 l 14.1 2.4 l 14.2 2.4 l 14.1 2.4 l 14.2 2.4 l 14.2 2.4 l 14.1 2.4 l 14.2 2.4 l 14.1 2.4 l 14.2 2.3 l 14.2 2.4 l 14.1 2.4 l 14.2 2.4 l 14.1 2.4 l 14.2 2.4 l 14.1 2.4 l 14.2 2.4 l 14.2 2.4 l 14.1 2.3 l 14.2 2.4 l 14.1 2.4 l 14.2 2.4 l 14.2 2.4 l 14.1 2.4 l 14.2 2.4 l 14.1 2.4 l 14.2 2.4 l 14.1 2.4 l 14.2 2.3 l 14.2 2.4 l 14.1 2.4 l 14.2 2.4 l 14.1 2.4 l 14.2 2.4 l 14.2 2.4 l 14.1 2.4 l 14.2 2.4 l 14.1 2.3 l 14.2 2.4 l 14.1 2.4 l 14.2 2.4 l 14.2 2.4 l 14.1 2.4 l 14.2 2.4 l 14.1 2.4 l 14.2 2.4 l 14.2 2.3 l 14.1 2.4 l 14.2 2.4 l 14.1 2.4 l 14.2 2.4 l 14.1 2.4 l 14.2 2.4 l 14.2 2.4 l 14.1 2.4 l 14.2 2.3 l 14.1 2.4 l 14.2 2.4 l 14.2 2.4 l -14.2 2.4 l -14.2 2.4 l -14.1 2.4 l -14.2 2.4 l -14.1 2.4 l -14.2 2.3 l -14.2 2.4 l -14.1 2.4 l -14.2 2.4 l -14.1 2.4 l -14.2 2.4 l -14.1 2.4 l -14.2 2.4 l -14.2 2.4 l -14.1 2.4 l -14.2 2.4 l -14.1 2.3 l -14.2 2.4 l -14.2 2.4 l -14.1 2.4 l -14.2 2.4 l -14.1 2.4 l -14.2 2.4 l -14.1 2.4 l -14.2 2.4 l -14.2 2.3 l -14.1 2.4 l -14.2 2.4 l -14.1 2.4 l -14.2 2.4 l -14.2 2.4 l -14.1 2.4 l -14.2 2.4 l -14.1 2.4 l -14.2 2.3 l -14.1 2.4 l -14.2 2.4 l -14.2 2.4 l -14.1 2.4 l -14.2 2.4 l -14.1 2.4 l -14.2 2.4 l -14.2 2.4 l -14.1 2.4 l -14.2 2.3 l -14.1 2.4 l -14.2 2.4 l -14.1 2.4 l -14.2 2.4 l -14.2 2.4 l -14.1 2.4 l -14.2 2.4 l -14.1 2.4 l -14.2 2.3 l -14.2 2.4 l -14.1 2.4 l -14.2 2.4 l -14.1 2.4 l -14.2 2.4 l -14.1 2.4 l -14.2 2.4 l -14.2 2.4 l -14.1 2.4 l -14.2 2.3 l -14.1 2.4 l -14.2 2.4 l -14.2 2.4 l -14.1 2.4 l -14.2 2.4 l -14.1 2.4 l -14.2 2.4 l -14.1 2.4 l -14.2 2.3 l -14.2 2.4 l -14.1 2.4 l -14.2 2.4 l -14.1 2.4 l -14.2 2.4 l -14.2 2.4 l -14.1 2.4 l -14.2 2.4 l -14.1 2.4 l -14.2 2.3 l -14.1 2.4 l -14.2 2.4 l -14.2 2.4 l -14.1 2.4 l -14.2 2.4 l -14.1 2.4 l -14.2 2.4 l -14.2 2.4 l -14.1 2.3 l -14.2 2.4 l -14.1 2.4 l -14.2 2.4 l -14.2 2.4 l -14.1 2.4 l -14.2 2.4 l -14.1 2.4 l -14.2 2.4 l -14.1 2.3 l -14.2 2.4 l -14.2 2.4 l -14.1 2.4 l -14.2 2.4 l -14.1 2.4 l -14.2 2.4 l -14.2 2.4 l -14.1 2.4 l -14.2 2.3 l -14.1 2.4 l -14.2 2.4 l -14.1 2.4 l -14.2 2.4 l -14.2 2.4 l -14.1 2.4 l -14.2 2.4 l -14.1 2.4 l -14.2 2.4 l -14.2 2.3 l -14.1 2.4 l -14.2 2.4 l -14.1 2.4 l -14.2 2.4 l -14.1 2.4 l -14.2 2.4 l -14.2 2.4 l -14.1 2.4 l -2.4 14.1 l -2.4 14.2 l -2.4 14.1 l -2.4 14.2 l -2.4 14.2 l -2.4 14.1 l -2.3 14.2 l -2.4 14.1 l -2.4 14.2 l -2.4 14.1 l -2.4 14.2 l -2.4 14.2 l -2.4 14.1 l -2.4 14.2 l -2.4 14.1 l -2.4 14.2 l -2.3 14.2 l -2.4 14.1 l -2.4 14.2 l -2.4 14.1 l -2.4 14.2 l -2.4 14.1 l -2.4 14.2 l -2.4 14.2 l -2.4 14.1 l -2.3 14.2 l -2.4 14.1 l -2.4 14.2 l -2.4 14.2 l -2.4 14.1 l -2.4 14.2 l -2.4 14.1 l -2.4 14.2 l -2.4 14.2 l -2.3 14.1 l -2.4 14.2 l -2.4 14.1 l -2.4 14.2 l -2.4 14.1 l -2.4 14.2 l -2.4 14.2 l -2.4 14.1 l -2.4 14.2 l -2.4 14.1 l -2.3 14.2 l -2.4 14.2 l -2.4 14.1 l -2.4 14.2 l -2.4 14.1 l -2.4 14.2 l -2.4 14.1 l -2.4 14.2 l -2.4 14.2 l -2.3 14.1 l -2.4 14.2 l -2.4 14.1 l -2.4 14.2 l -2.4 14.2 l -2.4 14.1 l -2.4 14.2 l -2.4 14.1 l -2.4 14.2 l -2.4 14.1 l -2.3 14.2 l -2.4 14.2 l -2.4 14.1 l -2.4 14.2 l -2.4 14.1 l -2.4 14.2 l -2.4 14.2 l -2.4 14.1 l -2.4 14.2 l -2.3 14.1 l -2.4 14.2 l -2.4 14.1 l -2.4 14.2 l -2.4 14.2 l -2.4 14.1 l -2.4 14.2 l -2.4 14.1 l -2.4 14.2 l -2.4 14.1 l -2.3 14.2 l -2.4 14.2 l -2.4 14.1 l -2.4 14.2 l -2.4 14.1 l -2.4 14.2 l -2.4 14.2 l -2.4 14.1 l -2.4 14.2 l -2.3 14.1 l -2.4 14.2 l -2.4 14.2 l -2.4 14.1 l -2.4 14.2 l -2.4 14.1 l -2.4 14.2 l -2.4 14.1 l -2.4 14.2 l -2.4 14.2 l -2.3 14.1 l -2.4 14.2 l -2.4 14.1 l -2.4 14.2 l -2.4 14.2 l -2.4 14.1 l -2.4 14.2 l -2.4 14.1 l -2.4 14.2 l -2.3 14.2 l -2.4 14.1 l -2.4 14.2 l -2.4 14.1 l -2.4 14.2 l -2.4 14.1 l -2.4 14.2 l -2.4 14.2 l -2.4 14.1 l -2.4 14.2 l -2.3 14.1 l -2.4 14.2 l -2.4 14.1 l -2.4 14.2 l -2.4 14.2 l -2.4 14.1 l -2.4 14.2 l -2.4 14.1" style="fill: #f0f4ff; fill-rule: nonzero; stroke: none; fill-opacity: 1" transform="matrix(0.1,0,0,-0.1,0,2829.3)"></path>        <path id="path9" d="M 17598.2 16733.1 l 10.8 12.2 l 10.8 12.1 l 10.8 12.2 l 10.8 12.2 l 10.8 12.1 l 10.8 12.2 l 10.7 12.2 l 10.8 12.1 l 10.8 12.2 l 10.8 12.1 l 10.8 12.2 l 10.8 12.2 l 10.8 12.1 l 10.8 12.2 l 10.8 12.1 l 10.8 12.2 l 10.8 12.2 l 10.7 12.1 l 10.8 12.2 l 10.8 12.1 l 10.8 12.2 l 10.8 12.2 l 10.8 12.1 l 10.8 12.2 l 10.8 12.1 l 10.8 12.2 l 10.8 12.2 l 10.8 12.1 l 10.8 12.2 l 10.7 12.1 l 10.8 12.2 l 10.8 12.2 l 10.8 12.1 l 10.8 12.2 l 10.8 12.1 l 10.8 12.2 l 10.8 12.2 l 10.8 12.1 l 10.8 12.2 l 10.8 12.2 l 10.7 12.1 l 10.8 12.2 l 10.8 12.1 l 10.8 12.2 l 10.8 12.2 l 10.8 12.1 l 10.8 12.2 l 10.8 12.1 l 10.8 12.2 l 10.8 12.2 l 10.8 12.1 l 10.8 12.2 l 10.7 12.1 l 10.8 12.2 l 10.8 12.1 l 10.8 12.2 l 10.8 12.2 l 10.8 12.1 l 10.8 12.2 l 10.8 12.2 l 10.8 12.1 l 10.8 12.2 l 10.8 12.1 l 10.7 12.2 l 10.8 12.2 l 10.8 12.1 l 10.8 12.2 l 10.8 12.1 l 10.8 12.2 l 10.8 12.2 l 10.8 12.1 l 10.8 12.2 l 10.8 12.1 l 10.8 12.2 l 10.7 12.2 l 10.8 12.1 l 10.8 12.2 l 10.8 12.1 l 10.8 12.2 l 10.8 12.2 l 10.8 12.1 l 10.8 12.2 l 10.8 12.1 l 10.8 12.2 l 10.8 12.2 l 10.8 12.1 l 10.7 12.2 l 10.8 12.2 l 10.8 12.1 l 10.8 12.2 l 10.8 12.1 l 10.8 12.2 l 10.8 12.2 l 10.8 12.1 l 10.8 12.2 l 10.8 12.1 l 10.8 12.2 l 10.7 12.2 l 10.8 12.1 l 10.8 12.2 l 10.8 12.1 l 10.8 12.2 l 10.8 12.2 l 10.8 12.1 l 10.8 12.2 l 10.8 12.1 l 10.8 12.2 l 10.8 12.1 l 10.7 12.2 l 10.8 12.2 l 10.8 12.1 l 10.8 12.2 l 10.8 12.2 l 10.8 12.1 l 10.8 12.2 l 10.8 12.1 l 10.8 12.2 l 10.8 12.2 l 10.8 12.1 l 10.8 12.2 l 10.7 12.1 l 10.8 12.2 l 10.8 12.2 l 10.8 12.1 l 10.8 12.2 l 10.8 12.1 l 10.8 12.2 l 10.8 12.2 l -12.2 -10.8 l -12.1 -10.8 l -12.2 -10.8 l -12.2 -10.8 l -12.1 -10.8 l -12.2 -10.8 l -12.1 -10.8 l -12.2 -10.8 l -12.2 -10.8 l -12.1 -10.7 l -12.2 -10.8 l -12.1 -10.8 l -12.2 -10.8 l -12.2 -10.8 l -12.1 -10.8 l -12.2 -10.8 l -12.1 -10.8 l -12.2 -10.8 l -12.2 -10.8 l -12.1 -10.8 l -12.2 -10.7 l -12.1 -10.8 l -12.2 -10.8 l -12.2 -10.8 l -12.1 -10.8 l -12.2 -10.8 l -12.1 -10.8 l -12.2 -10.8 l -12.2 -10.8 l -12.1 -10.8 l -12.2 -10.8 l -12.2 -10.8 l -12.1 -10.7 l -12.2 -10.8 l -12.1 -10.8 l -12.2 -10.8 l -12.2 -10.8 l -12.1 -10.8 l -12.2 -10.8 l -12.1 -10.8 l -12.2 -10.8 l -12.2 -10.8 l -12.1 -10.8 l -12.2 -10.7 l -12.1 -10.8 l -12.2 -10.8 l -12.2 -10.8 l -12.1 -10.8 l -12.2 -10.8 l -12.1 -10.8 l -12.2 -10.8 l -12.2 -10.8 l -12.1 -10.8 l -12.2 -10.8 l -12.1 -10.7 l -12.2 -10.8 l -12.2 -10.8 l -12.1 -10.8 l -12.2 -10.8 l -12.1 -10.8 l -12.2 -10.8 l -12.2 -10.8 l -12.1 -10.8 l -12.2 -10.8 l -12.1 -10.8 l -12.2 -10.8 l -12.2 -10.7 l -12.1 -10.8 l -12.2 -10.8 l -12.1 -10.8 l -12.2 -10.8 l -12.2 -10.8 l -12.1 -10.8 l -12.2 -10.8 l -12.1 -10.8 l -12.2 -10.8 l -12.2 -10.8 l -12.1 -10.8 l -12.2 -10.7 l -12.2 -10.8 l -12.1 -10.8 l -12.2 -10.8 l -12.1 -10.8 l -12.2 -10.8 l -12.2 -10.8 l -12.1 -10.8 l -12.2 -10.8 l -12.1 -10.8 l -12.2 -10.7 l -12.2 -10.9 l -12.1 -10.7 l -12.2 -10.8 l -12.1 -10.8 l -12.2 -10.8 l -12.2 -10.8 l -12.1 -10.8 l -12.2 -10.8 l -12.1 -10.8 l -12.2 -10.8 l -12.2 -10.8 l -12.1 -10.7 l -12.2 -10.8 l -12.1 -10.8 l -12.2 -10.8 l -12.2 -10.8 l -12.1 -10.8 l -12.2 -10.8 l -12.1 -10.8 l -12.2 -10.8 l -12.2 -10.8 l -12.1 -10.8 l -12.2 -10.7 l -12.1 -10.8 l -12.2 -10.8 l -12.2 -10.8 l -12.1 -10.8 l -12.2 -10.8 l -12.1 -10.8 l -12.2 -10.8 l -12.2 -10.8 l -12.1 -10.8 l -12.2 -10.8 l -12.1 -10.7 l -12.2 -10.8 l -12.2 -10.8 l -12.1 -10.8 l -12.2 -10.8 l -12.2 -10.8 l -12.1 10.8 l -12.2 10.8 l -12.1 10.8 l -12.2 10.8 l -12.2 10.8 l -12.1 10.7 l -12.2 10.8 l -12.1 10.8 l -12.2 10.8 l -12.2 10.8 l -12.1 10.8 l -12.2 10.8 l -12.1 10.8 l -12.2 10.8 l -12.2 10.8 l -12.1 10.8 l -12.2 10.7 l -12.1 10.8 l -12.2 10.8 l -12.2 10.8 l -12.1 10.8 l -12.2 10.8 l -12.1 10.8 l -12.2 10.8 l -12.2 10.8 l -12.1 10.8 l -12.2 10.8 l -12.1 10.7 l -12.2 10.8 l -12.2 10.8 l -12.1 10.8 l -12.2 10.8 l -12.1 10.8 l -12.2 10.8 l -12.2 10.8 l -12.1 10.8 l -12.2 10.8 l -12.2 10.7 l -12.1 10.9 l -12.2 10.7 l -12.1 10.8 l -12.2 10.8 l -12.2 10.8 l -12.1 10.8 l -12.2 10.8 l -12.1 10.8 l -12.2 10.8 l -12.2 10.8 l -12.1 10.8 l -12.2 10.7 l -12.1 10.8 l -12.2 10.8 l -12.2 10.8 l -12.1 10.8 l -12.2 10.8 l -12.1 10.8 l -12.2 10.8 l -12.2 10.8 l -12.1 10.8 l -12.2 10.8 l -12.1 10.8 l -12.2 10.7 l -12.2 10.8 l -12.1 10.8 l -12.2 10.8 l -12.1 10.8 l -12.2 10.8 l -12.2 10.8 l -12.1 10.8 l -12.2 10.8 l -12.1 10.8 l -12.2 10.8 l -12.2 10.8 l -12.1 10.7 l -12.2 10.8 l -12.2 10.8 l -12.1 10.8 l -12.2 10.8 l -12.1 10.8 l -12.2 10.8 l -12.2 10.8 l -12.1 10.8 l -12.2 10.8 l -12.1 10.8 l -12.2 10.7 l -12.2 10.8 l -12.1 10.8 l -12.2 10.8 l -12.1 10.8 l -12.2 10.8 l -12.2 10.8 l -12.1 10.8 l -12.2 10.8 l -12.1 10.8 l -12.2 10.8 l -12.2 10.7 l -12.1 10.8 l -12.2 10.8 l -12.1 10.8 l -12.2 10.8 l -12.2 10.8 l -12.1 10.8 l -12.2 10.8 l -12.1 10.8 l -12.2 10.8 l -12.2 10.8 l -12.1 10.8 l -12.2 10.7 l -12.1 10.8 l -12.2 10.8 l -12.2 10.8 l -12.1 10.8 l -12.2 10.8 l -12.2 10.8 l -12.1 10.8 l -12.2 10.8 l -12.1 10.8 l -12.2 10.8 l -12.2 10.7 l -12.1 10.8 l -12.2 10.8 l -12.1 10.8 l -12.2 10.8 l -12.2 10.8 l -12.1 10.8 l -12.2 10.8 l -12.1 10.8 l -12.2 10.8 l 10.8 -12.2 l 10.8 -12.2 l 10.8 -12.1 l 10.8 -12.2 l 10.8 -12.1 l 10.7 -12.2 l 10.8 -12.2 l 10.8 -12.1 l 10.8 -12.2 l 10.8 -12.1 l 10.8 -12.2 l 10.8 -12.2 l 10.8 -12.1 l 10.8 -12.2 l 10.8 -12.1 l 10.8 -12.2 l 10.8 -12.2 l 10.7 -12.1 l 10.8 -12.2 l 10.8 -12.2 l 10.8 -12.1 l 10.8 -12.2 l 10.8 -12.1 l 10.8 -12.2 l 10.8 -12.1 l 10.8 -12.2 l 10.8 -12.2 l 10.8 -12.1 l 10.7 -12.2 l 10.8 -12.1 l 10.8 -12.2 l 10.8 -12.2 l 10.8 -12.1 l 10.8 -12.2 l 10.8 -12.2 l 10.8 -12.1 l 10.8 -12.2 l 10.8 -12.1 l 10.8 -12.2 l 10.8 -12.2 l 10.7 -12.1 l 10.8 -12.2 l 10.8 -12.1 l 10.8 -12.2 l 10.8 -12.2 l 10.8 -12.1 l 10.8 -12.2 l 10.8 -12.1 l 10.8 -12.2 l 10.8 -12.2 l 10.8 -12.1 l 10.7 -12.2 l 10.8 -12.1 l 10.8 -12.2 l 10.8 -12.2 l 10.8 -12.1 l 10.8 -12.2 l 10.8 -12.1 l 10.8 -12.2 l 10.8 -12.2 l 10.8 -12.1 l 10.8 -12.2 l 10.8 -12.1 l 10.7 -12.2 l 10.8 -12.2 l 10.8 -12.1 l 10.8 -12.2 l 10.8 -12.1 l 10.8 -12.2 l 10.8 -12.2 l 10.8 -12.1 l 10.8 -12.2 l 10.8 -12.2 l 10.8 -12.1 l 10.7 -12.2 l 10.8 -12.1 l 10.8 -12.2 l 10.8 -12.2 l 10.8 -12.1 l 10.8 -12.2 l 10.8 -12.1 l 10.8 -12.2 l 10.8 -12.2 l 10.8 -12.1 l 10.8 -12.2 l 10.7 -12.1 l 10.8 -12.2 l 10.8 -12.2 l 10.8 -12.1 l 10.8 -12.2 l 10.8 -12.1 l 10.8 -12.2 l 10.8 -12.2 l 10.8 -12.1 l 10.8 -12.2 l 10.8 -12.1 l 10.8 -12.2 l 10.7 -12.2 l 10.8 -12.1 l 10.8 -12.2 l 10.8 -12.2 l 10.8 -12.1 l 10.8 -12.2 l 10.8 -12.1 l 10.8 -12.2 l 10.8 -12.1 l 10.8 -12.2 l 10.8 -12.2 l 10.7 -12.1 l 10.8 -12.2 l 10.8 -12.2 l 10.8 -12.1 l 10.8 -12.2 l 10.8 -12.1 l 10.8 -12.2 l 10.8 -12.2 l 10.8 -12.1 l 10.8 -12.2 l 10.8 -12.1 l 10.8 -12.2 l 10.7 -12.2 l 10.8 -12.1 l 10.8 -12.2 l 10.8 -12.1 l 10.8 -12.2 l 10.8 -12.2 l 10.8 -12.1 l 10.8 -12.2 l -10.8 -12.2 l -10.8 -12.1 l -10.8 -12.2 l -10.8 -12.1 l -10.8 -12.2 l -10.8 -12.1 l -10.8 -12.2 l -10.7 -12.2 l -10.8 -12.1 l -10.8 -12.2 l -10.8 -12.1 l -10.8 -12.2 l -10.8 -12.2 l -10.8 -12.1 l -10.8 -12.2 l -10.8 -12.1 l -10.8 -12.2 l -10.8 -12.2 l -10.8 -12.1 l -10.7 -12.2 l -10.8 -12.1 l -10.8 -12.2 l -10.8 -12.2 l -10.8 -12.1 l -10.8 -12.2 l -10.8 -12.2 l -10.8 -12.1 l -10.8 -12.2 l -10.8 -12.1 l -10.8 -12.2 l -10.7 -12.2 l -10.8 -12.1 l -10.8 -12.2 l -10.8 -12.1 l -10.8 -12.2 l -10.8 -12.2 l -10.8 -12.1 l -10.8 -12.2 l -10.8 -12.1 l -10.8 -12.2 l -10.8 -12.2 l -10.7 -12.1 l -10.8 -12.2 l -10.8 -12.1 l -10.8 -12.2 l -10.8 -12.2 l -10.8 -12.1 l -10.8 -12.2 l -10.8 -12.1 l -10.8 -12.2 l -10.8 -12.2 l -10.8 -12.1 l -10.8 -12.2 l -10.7 -12.2 l -10.8 -12.1 l -10.8 -12.2 l -10.8 -12.1 l -10.8 -12.2 l -10.8 -12.1 l -10.8 -12.2 l -10.8 -12.2 l -10.8 -12.1 l -10.8 -12.2 l -10.8 -12.1 l -10.7 -12.2 l -10.8 -12.2 l -10.8 -12.1 l -10.8 -12.2 l -10.8 -12.1 l -10.8 -12.2 l -10.8 -12.2 l -10.8 -12.1 l -10.8 -12.2 l -10.8 -12.2 l -10.8 -12.1 l -10.7 -12.2 l -10.8 -12.1 l -10.8 -12.2 l -10.8 -12.2 l -10.8 -12.1 l -10.8 -12.2 l -10.8 -12.1 l -10.8 -12.2 l -10.8 -12.2 l -10.8 -12.1 l -10.8 -12.2 l -10.8 -12.1 l -10.7 -12.2 l -10.8 -12.2 l -10.8 -12.1 l -10.8 -12.2 l -10.8 -12.1 l -10.8 -12.2 l -10.8 -12.2 l -10.8 -12.1 l -10.8 -12.2 l -10.8 -12.1 l -10.8 -12.2 l -10.7 -12.2 l -10.8 -12.1 l -10.8 -12.2 l -10.8 -12.1 l -10.8 -12.2 l -10.8 -12.2 l -10.8 -12.1 l -10.8 -12.2 l -10.8 -12.2 l -10.8 -12.1 l -10.8 -12.2 l -10.8 -12.1 l -10.7 -12.2 l -10.8 -12.1 l -10.8 -12.2 l -10.8 -12.2 l -10.8 -12.1 l -10.8 -12.2 l -10.8 -12.1 l -10.8 -12.2 l -10.8 -12.2 l -10.8 -12.1 l -10.8 -12.2 l -10.7 -12.2 l -10.8 -12.1 l -10.8 -12.2 l -10.8 -12.1 l -10.8 -12.2 l -10.8 -12.2 l -10.8 -12.1 l 12.2 10.8 l 12.1 10.8 l 12.2 10.8 l 12.2 10.8 l 12.1 10.7 l 12.2 10.8 l 12.1 10.8 l 12.2 10.8 l 12.2 10.8 l 12.1 10.8 l 12.2 10.8 l 12.1 10.8 l 12.2 10.8 l 12.2 10.8 l 12.1 10.7 l 12.2 10.8 l 12.1 10.8 l 12.2 10.8 l 12.2 10.8 l 12.1 10.8 l 12.2 10.8 l 12.1 10.8 l 12.2 10.8 l 12.2 10.8 l 12.1 10.8 l 12.2 10.8 l 12.1 10.7 l 12.2 10.8 l 12.2 10.8 l 12.1 10.8 l 12.2 10.8 l 12.1 10.8 l 12.2 10.8 l 12.2 10.8 l 12.1 10.8 l 12.2 10.8 l 12.1 10.8 l 12.2 10.8 l 12.2 10.7 l 12.1 10.8 l 12.2 10.8 l 12.1 10.8 l 12.2 10.8 l 12.2 10.8 l 12.1 10.8 l 12.2 10.8 l 12.1 10.8 l 12.2 10.8 l 12.2 10.8 l 12.1 10.7 l 12.2 10.8 l 12.2 10.8 l 12.1 10.8 l 12.2 10.8 l 12.1 10.8 l 12.2 10.8 l 12.2 10.8 l 12.1 10.8 l 12.2 10.8 l 12.1 10.8 l 12.2 10.7 l 12.2 10.8 l 12.1 10.8 l 12.2 10.8 l 12.1 10.8 l 12.2 10.8 l 12.2 10.8 l 12.1 10.8 l 12.2 10.8 l 12.1 10.8 l 12.2 10.8 l 12.2 10.8 l 12.1 10.7 l 12.2 10.8 l 12.1 10.8 l 12.2 10.8 l 12.2 10.8 l 12.1 10.8 l 12.2 10.8 l 12.1 10.8 l 12.2 10.8 l 12.2 10.8 l 12.1 10.8 l 12.2 10.7 l 12.1 10.8 l 12.2 10.8 l 12.2 10.8 l 12.1 10.8 l 12.2 10.8 l 12.1 10.8 l 12.2 10.8 l 12.2 10.8 l 12.1 10.8 l 12.2 10.7 l 12.1 10.9 l 12.2 10.7 l 12.2 10.8 l 12.1 10.8 l 12.2 10.8 l 12.1 10.8 l 12.2 10.8 l 12.2 10.8 l 12.1 10.8 l 12.2 10.8 l 12.2 10.8 l 12.1 10.7 l 12.2 10.8 l 12.1 10.8 l 12.2 10.8 l 12.2 10.8 l 12.1 10.8 l 12.2 10.8 l 12.1 10.8 l 12.2 10.8 l 12.2 10.8 l 12.1 10.8 l 12.2 10.8 l 12.1 10.7 l 12.2 10.8 l 12.2 10.8 l 12.1 10.8 l 12.2 10.8 l 12.1 10.8 l 12.2 10.8 l 12.2 10.8 l 12.1 10.8 l 12.2 10.8 l 12.1 10.8 l 12.2 -10.8 l 12.2 -10.8 l 12.1 -10.8 l 12.2 -10.8 l 12.1 -10.8 l 12.2 -10.8 l 12.2 -10.8 l 12.1 -10.8 l 12.2 -10.8 l 12.1 -10.8 l 12.2 -10.7 l 12.2 -10.8 l 12.1 -10.8 l 12.2 -10.8 l 12.1 -10.8 l 12.2 -10.8 l 12.2 -10.8 l 12.1 -10.8 l 12.2 -10.8 l 12.2 -10.8 l 12.1 -10.8 l 12.2 -10.8 l 12.1 -10.7 l 12.2 -10.8 l 12.2 -10.8 l 12.1 -10.8 l 12.2 -10.8 l 12.1 -10.8 l 12.2 -10.8 l 12.2 -10.8 l 12.1 -10.8 l 12.2 -10.8 l 12.1 -10.7 l 12.2 -10.9 l 12.2 -10.7 l 12.1 -10.8 l 12.2 -10.8 l 12.1 -10.8 l 12.2 -10.8 l 12.2 -10.8 l 12.1 -10.8 l 12.2 -10.8 l 12.1 -10.8 l 12.2 -10.8 l 12.2 -10.7 l 12.1 -10.8 l 12.2 -10.8 l 12.1 -10.8 l 12.2 -10.8 l 12.2 -10.8 l 12.1 -10.8 l 12.2 -10.8 l 12.1 -10.8 l 12.2 -10.8 l 12.2 -10.8 l 12.1 -10.7 l 12.2 -10.8 l 12.1 -10.8 l 12.2 -10.8 l 12.2 -10.8 l 12.1 -10.8 l 12.2 -10.8 l 12.2 -10.8 l 12.1 -10.8 l 12.2 -10.8 l 12.1 -10.8 l 12.2 -10.8 l 12.2 -10.7 l 12.1 -10.8 l 12.2 -10.8 l 12.1 -10.8 l 12.2 -10.8 l 12.2 -10.8 l 12.1 -10.8 l 12.2 -10.8 l 12.1 -10.8 l 12.2 -10.8 l 12.2 -10.8 l 12.1 -10.7 l 12.2 -10.8 l 12.1 -10.8 l 12.2 -10.8 l 12.2 -10.8 l 12.1 -10.8 l 12.2 -10.8 l 12.1 -10.8 l 12.2 -10.8 l 12.2 -10.8 l 12.1 -10.8 l 12.2 -10.7 l 12.1 -10.8 l 12.2 -10.8 l 12.2 -10.8 l 12.1 -10.8 l 12.2 -10.8 l 12.1 -10.8 l 12.2 -10.8 l 12.2 -10.8 l 12.1 -10.8 l 12.2 -10.8 l 12.1 -10.8 l 12.2 -10.7 l 12.2 -10.8 l 12.1 -10.8 l 12.2 -10.8 l 12.2 -10.8 l 12.1 -10.8 l 12.2 -10.8 l 12.1 -10.8 l 12.2 -10.8 l 12.2 -10.8 l 12.1 -10.8 l 12.2 -10.8 l 12.1 -10.7 l 12.2 -10.8 l 12.2 -10.8 l 12.1 -10.8 l 12.2 -10.8 l 12.1 -10.8 l 12.2 -10.8 l 12.2 -10.8 l 12.1 -10.8 l 12.2 -10.8 l 12.1 -10.7 l 12.2 -10.8 l 12.2 -10.8 l 12.1 -10.8 l 12.2 -10.8 l -10.8 12.1 l -10.8 12.2 l -10.8 12.2 l -10.8 12.1 l -10.8 12.2 l -10.8 12.1 l -10.8 12.2 l -10.7 12.2 l -10.8 12.1 l -10.8 12.2 l -10.8 12.2 l -10.8 12.1 l -10.8 12.2 l -10.8 12.1 l -10.8 12.2 l -10.8 12.2 l -10.8 12.1 l -10.8 12.2 l -10.8 12.1 l -10.7 12.2 l -10.8 12.1 l -10.8 12.2 l -10.8 12.2 l -10.8 12.1 l -10.8 12.2 l -10.8 12.2 l -10.8 12.1 l -10.8 12.2 l -10.8 12.1 l -10.8 12.2 l -10.7 12.2 l -10.8 12.1 l -10.8 12.2 l -10.8 12.1 l -10.8 12.2 l -10.8 12.2 l -10.8 12.1 l -10.8 12.2 l -10.8 12.1 l -10.8 12.2 l -10.8 12.2 l -10.7 12.1 l -10.8 12.2 l -10.8 12.1 l -10.8 12.2 l -10.8 12.2 l -10.8 12.1 l -10.8 12.2 l -10.8 12.1 l -10.8 12.2 l -10.8 12.2 l -10.8 12.1 l -10.8 12.2 l -10.7 12.2 l -10.8 12.1 l -10.8 12.2 l -10.8 12.1 l -10.8 12.2 l -10.8 12.2 l -10.8 12.1 l -10.8 12.2 l -10.8 12.1 l -10.8 12.2 l -10.8 12.2 l -10.7 12.1 l -10.8 12.2 l -10.8 12.1 l -10.8 12.2 l -10.8 12.2 l -10.8 12.1 l -10.8 12.2 l -10.8 12.1 l -10.8 12.2 l -10.8 12.2 l -10.8 12.1 l -10.7 12.2 l -10.8 12.1 l -10.8 12.2 l -10.8 12.2 l -10.8 12.1 l -10.8 12.2 l -10.8 12.1 l -10.8 12.2 l -10.8 12.2 l -10.8 12.1 l -10.8 12.2 l -10.8 12.2 l -10.7 12.1 l -10.8 12.2 l -10.8 12.1 l -10.8 12.2 l -10.8 12.2 l -10.8 12.1 l -10.8 12.2 l -10.8 12.1 l -10.8 12.2 l -10.8 12.2 l -10.8 12.1 l -10.7 12.2 l -10.8 12.1 l -10.8 12.2 l -10.8 12.2 l -10.8 12.1 l -10.8 12.2 l -10.8 12.1 l -10.8 12.2 l -10.8 12.2 l -10.8 12.1 l -10.8 12.2 l -10.8 12.1 l -10.7 12.2 l -10.8 12.2 l -10.8 12.1 l -10.8 12.2 l -10.8 12.1 l -10.8 12.2 l -10.8 12.2 l -10.8 12.1 l -10.8 12.2 l -10.8 12.2 l -10.8 12.1 l -10.7 12.2 l -10.8 12.1 l -10.8 12.2 l -10.8 12.2 l -10.8 12.1 l -10.8 12.2 l -10.8 12.1" style="fill: #f0f4ff; fill-rule: nonzero; stroke: none; fill-opacity: 1" transform="matrix(0.1,0,0,-0.1,0,2829.3)"></path>            </g>   </g>      </svg>